<svg xmlns="http://www.w3.org/2000/svg" width="14.728" height="14.721" viewBox="0 0 14.728 14.721"><defs><style>.a{fill:#fff;fill-rule:evenodd;}</style></defs><path class="a" d="M331.959,329.2a2.75,2.75,0,0,0-1.911.776l-4.563-2.282a1.659,1.659,0,0,0,0-.669l4.563-2.282a2.755,2.755,0,1,0-.849-1.984,2.66,2.66,0,0,0,.034.334l-4.563,2.282a2.76,2.76,0,1,0,0,3.968l4.563,2.282a2.674,2.674,0,0,0-.034.335,2.76,2.76,0,1,0,2.76-2.76Zm0-7.36a.92.92,0,1,1-.92.92A.92.92,0,0,1,331.959,321.84Zm-9.2,6.44a.92.92,0,1,1,.92-.92A.92.92,0,0,1,322.759,328.28Zm9.2,4.6a.92.92,0,1,1,.92-.92A.92.92,0,0,1,331.959,332.88Z" transform="translate(-319.991 -319.999)"/></svg>